<svg width="80" height="80" viewBox="0 0 80 80" fill="none" xmlns="http://www.w3.org/2000/svg">
<rect width="80" height="80" rx="15" fill="white"/>
<path d="M25.1199 31.7202H25.28V41.6203C25.28 42.912 24.3821 43.6784 22.98 43.6784C21.5687 43.6784 20.7122 42.6701 20.7122 41.5845L20.68 40.0002H17V41.6203C17 43.4778 17.6606 47.3602 22.98 47.3602C28.3004 47.3602 28.96 43.2368 28.96 41.5449V31.7202H25.1199ZM34.94 44.6002C33.778 44.6002 33.56 43.6802 33.56 42.7602H40C40 38.1602 38.16 36.3202 34.94 36.3202C31.72 36.3202 29.88 38.1602 29.88 41.6682C29.88 45.5202 31.5516 47.3602 34.9602 47.3602C37.9475 47.3915 40 45.1679 40 43.6802H36.32C36.32 43.6802 36.0974 44.6002 34.94 44.6002ZM34.94 39.0802C35.8867 39.0802 36.32 40.0002 36.32 40.9202H33.56C33.56 40.0002 34.0034 39.0802 34.94 39.0802ZM45.98 44.6002C44.818 44.6002 44.6 43.6802 44.6 42.7602H51.04C51.04 38.1602 49.2 36.3202 45.98 36.3202C42.76 36.3202 40.92 38.1602 40.92 41.6682C40.92 45.5202 42.5916 47.3602 46.0002 47.3602C48.9875 47.3915 51.04 45.1679 51.04 43.6802H47.36C47.36 43.6802 47.1374 44.6002 45.98 44.6002ZM45.98 39.0802C46.9267 39.0802 47.36 40.0002 47.36 40.9202H44.6C44.6 40.0002 45.0434 39.0802 45.98 39.0802ZM58.5785 35.9467C56.8452 35.9467 56.1948 36.7517 55.9629 37.0332C55.6952 37.3626 55.7605 37.5457 55.64 37.8088V36.3202H51.96L52.0262 50.1202H55.64V45.81C55.7808 45.9995 55.7458 46.0952 56.0025 46.2985C56.4036 46.6077 57.0872 47.1413 58.618 47.1413C61.3946 47.1413 62.9991 44.7263 62.9991 41.4253C63 37.1537 60.3062 35.9467 58.5785 35.9467ZM57.5334 44.6793C55.8442 44.6793 55.6004 43.5983 55.64 41.5449C55.6842 39.4896 56.2895 38.6487 57.3714 38.6487C59.1406 38.6487 59.32 40.014 59.32 41.4253C59.32 42.8338 59.2197 44.6793 57.5334 44.6793Z" fill="#B9B9B9"/>
</svg>
